# xmcd
#
# Track frame offsets: 
#        150
#        20335
#        31499
#        41618
#        55289
#        64586
#        71521
#        87143
#        102814
#        119544
#        133898
#        156751
#        168235
#        187758
#        202711
#        223481
#        241827
#        253039
#
# Disc length: 3556 seconds
#
# Revision: 0
# Processed by: cddbd v1.5.2PL0 Copyright (c) Steve Scherf et al.
# Submitted via: ExactAudioCopy v0.99pb5
#
DISCID=f50de212
DTITLE=James 'JB Blues' Broussard - Blues Alley
DYEAR=1995
DGENRE=Blues
TTITLE0=Makes For Good Blues
TTITLE1=Nine Ball King
TTITLE2=Don't You Want A Man Like Me
TTITLE3=Whole Lot Of Dog In A Man
TTITLE4=Drunk But Dressed Up
TTITLE5=Mo
TTITLE6=Hard Times
TTITLE7=Street Rod
TTITLE8=Swamp Blues
TTITLE9=Get Your Butt Rockin'
TTITLE10=Christmas Blues
TTITLE11=My Way Or The Highway
TTITLE12=You Put My Love On A Chill
TTITLE13=Not Again
TTITLE14=Hairy Woman Blues
TTITLE15=Halfway Between Love And Leaving
TTITLE16=Guaranteed Good Man
TTITLE17=Blues Alley
EXTD=
EXTT0=
EXTT1=
EXTT2=
EXTT3=
EXTT4=
EXTT5=
EXTT6=
EXTT7=
EXTT8=
EXTT9=
EXTT10=
EXTT11=
EXTT12=
EXTT13=
EXTT14=
EXTT15=
EXTT16=
EXTT17=
PLAYORDER=
